<svg width="1024" height="1024" viewBox="0 0 1024 1024" fill="none" xmlns="http://www.w3.org/2000/svg">
<g opacity="0.5" filter="url(#filter0_f_17097_11254)">
<path d="M510.46 168.568C595.427 168.57 665.129 233.875 672.136 317.03C686.789 312.681 702.308 310.335 718.373 310.335C807.991 310.336 880.64 382.988 880.64 472.605C880.64 537.545 842.488 593.564 787.378 619.498C798.666 641.608 805.035 666.647 805.035 693.175C805.035 782.792 732.386 855.444 642.768 855.445C589.11 855.445 541.541 829.394 512 789.258C482.459 829.393 434.894 855.445 381.237 855.445C291.618 855.445 218.97 782.793 218.97 693.175C218.97 666.648 225.334 641.607 236.622 619.498C181.513 593.564 143.36 537.545 143.36 472.605C143.36 382.988 216.009 310.336 305.627 310.335C320.595 310.335 335.089 312.373 348.851 316.167C356.265 233.423 425.786 168.568 510.46 168.568Z" fill="white"/>
<path d="M510.46 168.568C595.427 168.57 665.129 233.875 672.136 317.03C686.789 312.681 702.308 310.335 718.373 310.335C807.991 310.336 880.64 382.988 880.64 472.605C880.64 537.545 842.488 593.564 787.378 619.498C798.666 641.608 805.035 666.647 805.035 693.175C805.035 782.792 732.386 855.444 642.768 855.445C589.11 855.445 541.541 829.394 512 789.258C482.459 829.393 434.894 855.445 381.237 855.445C291.618 855.445 218.97 782.793 218.97 693.175C218.97 666.648 225.334 641.607 236.622 619.498C181.513 593.564 143.36 537.545 143.36 472.605C143.36 382.988 216.009 310.336 305.627 310.335C320.595 310.335 335.089 312.373 348.851 316.167C356.265 233.423 425.786 168.568 510.46 168.568Z" fill="url(#paint0_radial_17097_11254)"/>
<path d="M510.46 168.568C595.427 168.57 665.129 233.875 672.136 317.03C686.789 312.681 702.308 310.335 718.373 310.335C807.991 310.336 880.64 382.988 880.64 472.605C880.64 537.545 842.488 593.564 787.378 619.498C798.666 641.608 805.035 666.647 805.035 693.175C805.035 782.792 732.386 855.444 642.768 855.445C589.11 855.445 541.541 829.394 512 789.258C482.459 829.393 434.894 855.445 381.237 855.445C291.618 855.445 218.97 782.793 218.97 693.175C218.97 666.648 225.334 641.607 236.622 619.498C181.513 593.564 143.36 537.545 143.36 472.605C143.36 382.988 216.009 310.336 305.627 310.335C320.595 310.335 335.089 312.373 348.851 316.167C356.265 233.423 425.786 168.568 510.46 168.568Z" fill="url(#paint1_radial_17097_11254)"/>
<path d="M510.46 168.568C595.427 168.57 665.129 233.875 672.136 317.03C686.789 312.681 702.308 310.335 718.373 310.335C807.991 310.336 880.64 382.988 880.64 472.605C880.64 537.545 842.488 593.564 787.378 619.498C798.666 641.608 805.035 666.647 805.035 693.175C805.035 782.792 732.386 855.444 642.768 855.445C589.11 855.445 541.541 829.394 512 789.258C482.459 829.393 434.894 855.445 381.237 855.445C291.618 855.445 218.97 782.793 218.97 693.175C218.97 666.648 225.334 641.607 236.622 619.498C181.513 593.564 143.36 537.545 143.36 472.605C143.36 382.988 216.009 310.336 305.627 310.335C320.595 310.335 335.089 312.373 348.851 316.167C356.265 233.423 425.786 168.568 510.46 168.568Z" fill="url(#paint2_radial_17097_11254)"/>
<path d="M510.46 168.568C595.427 168.57 665.129 233.875 672.136 317.03C686.789 312.681 702.308 310.335 718.373 310.335C807.991 310.336 880.64 382.988 880.64 472.605C880.64 537.545 842.488 593.564 787.378 619.498C798.666 641.608 805.035 666.647 805.035 693.175C805.035 782.792 732.386 855.444 642.768 855.445C589.11 855.445 541.541 829.394 512 789.258C482.459 829.393 434.894 855.445 381.237 855.445C291.618 855.445 218.97 782.793 218.97 693.175C218.97 666.648 225.334 641.607 236.622 619.498C181.513 593.564 143.36 537.545 143.36 472.605C143.36 382.988 216.009 310.336 305.627 310.335C320.595 310.335 335.089 312.373 348.851 316.167C356.265 233.423 425.786 168.568 510.46 168.568Z" fill="url(#paint3_radial_17097_11254)"/>
<path d="M510.46 168.568C595.427 168.57 665.129 233.875 672.136 317.03C686.789 312.681 702.308 310.335 718.373 310.335C807.991 310.336 880.64 382.988 880.64 472.605C880.64 537.545 842.488 593.564 787.378 619.498C798.666 641.608 805.035 666.647 805.035 693.175C805.035 782.792 732.386 855.444 642.768 855.445C589.11 855.445 541.541 829.394 512 789.258C482.459 829.393 434.894 855.445 381.237 855.445C291.618 855.445 218.97 782.793 218.97 693.175C218.97 666.648 225.334 641.607 236.622 619.498C181.513 593.564 143.36 537.545 143.36 472.605C143.36 382.988 216.009 310.336 305.627 310.335C320.595 310.335 335.089 312.373 348.851 316.167C356.265 233.423 425.786 168.568 510.46 168.568Z" fill="url(#paint4_radial_17097_11254)"/>
<path d="M510.46 168.568C595.427 168.57 665.129 233.875 672.136 317.03C686.789 312.681 702.308 310.335 718.373 310.335C807.991 310.336 880.64 382.988 880.64 472.605C880.64 537.545 842.488 593.564 787.378 619.498C798.666 641.608 805.035 666.647 805.035 693.175C805.035 782.792 732.386 855.444 642.768 855.445C589.11 855.445 541.541 829.394 512 789.258C482.459 829.393 434.894 855.445 381.237 855.445C291.618 855.445 218.97 782.793 218.97 693.175C218.97 666.648 225.334 641.607 236.622 619.498C181.513 593.564 143.36 537.545 143.36 472.605C143.36 382.988 216.009 310.336 305.627 310.335C320.595 310.335 335.089 312.373 348.851 316.167C356.265 233.423 425.786 168.568 510.46 168.568Z" fill="url(#paint5_radial_17097_11254)"/>
<path d="M510.46 168.568C595.427 168.57 665.129 233.875 672.136 317.03C686.789 312.681 702.308 310.335 718.373 310.335C807.991 310.336 880.64 382.988 880.64 472.605C880.64 537.545 842.488 593.564 787.378 619.498C798.666 641.608 805.035 666.647 805.035 693.175C805.035 782.792 732.386 855.444 642.768 855.445C589.11 855.445 541.541 829.394 512 789.258C482.459 829.393 434.894 855.445 381.237 855.445C291.618 855.445 218.97 782.793 218.97 693.175C218.97 666.648 225.334 641.607 236.622 619.498C181.513 593.564 143.36 537.545 143.36 472.605C143.36 382.988 216.009 310.336 305.627 310.335C320.595 310.335 335.089 312.373 348.851 316.167C356.265 233.423 425.786 168.568 510.46 168.568Z" fill="url(#paint6_radial_17097_11254)"/>
<path d="M510.46 168.568C595.427 168.57 665.129 233.875 672.136 317.03C686.789 312.681 702.308 310.335 718.373 310.335C807.991 310.336 880.64 382.988 880.64 472.605C880.64 537.545 842.488 593.564 787.378 619.498C798.666 641.608 805.035 666.647 805.035 693.175C805.035 782.792 732.386 855.444 642.768 855.445C589.11 855.445 541.541 829.394 512 789.258C482.459 829.393 434.894 855.445 381.237 855.445C291.618 855.445 218.97 782.793 218.97 693.175C218.97 666.648 225.334 641.607 236.622 619.498C181.513 593.564 143.36 537.545 143.36 472.605C143.36 382.988 216.009 310.336 305.627 310.335C320.595 310.335 335.089 312.373 348.851 316.167C356.265 233.423 425.786 168.568 510.46 168.568Z" fill="url(#paint7_radial_17097_11254)" style="mix-blend-mode:soft-light"/>
</g>
<path d="M510.46 168.568C595.427 168.57 665.129 233.875 672.136 317.03C686.789 312.681 702.308 310.335 718.373 310.335C807.991 310.336 880.64 382.988 880.64 472.605C880.64 537.545 842.488 593.564 787.378 619.498C798.666 641.608 805.035 666.647 805.035 693.175C805.035 782.792 732.386 855.444 642.768 855.445C589.11 855.445 541.541 829.394 512 789.258C482.459 829.393 434.894 855.445 381.237 855.445C291.618 855.445 218.97 782.793 218.97 693.175C218.97 666.648 225.334 641.607 236.622 619.498C181.513 593.564 143.36 537.545 143.36 472.605C143.36 382.988 216.009 310.336 305.627 310.335C320.595 310.335 335.089 312.373 348.851 316.167C356.265 233.423 425.786 168.568 510.46 168.568Z" fill="white"/>
<path d="M510.46 168.568C595.427 168.57 665.129 233.875 672.136 317.03C686.789 312.681 702.308 310.335 718.373 310.335C807.991 310.336 880.64 382.988 880.64 472.605C880.64 537.545 842.488 593.564 787.378 619.498C798.666 641.608 805.035 666.647 805.035 693.175C805.035 782.792 732.386 855.444 642.768 855.445C589.11 855.445 541.541 829.394 512 789.258C482.459 829.393 434.894 855.445 381.237 855.445C291.618 855.445 218.97 782.793 218.97 693.175C218.97 666.648 225.334 641.607 236.622 619.498C181.513 593.564 143.36 537.545 143.36 472.605C143.36 382.988 216.009 310.336 305.627 310.335C320.595 310.335 335.089 312.373 348.851 316.167C356.265 233.423 425.786 168.568 510.46 168.568Z" fill="url(#paint8_radial_17097_11254)"/>
<path d="M510.46 168.568C595.427 168.57 665.129 233.875 672.136 317.03C686.789 312.681 702.308 310.335 718.373 310.335C807.991 310.336 880.64 382.988 880.64 472.605C880.64 537.545 842.488 593.564 787.378 619.498C798.666 641.608 805.035 666.647 805.035 693.175C805.035 782.792 732.386 855.444 642.768 855.445C589.11 855.445 541.541 829.394 512 789.258C482.459 829.393 434.894 855.445 381.237 855.445C291.618 855.445 218.97 782.793 218.97 693.175C218.97 666.648 225.334 641.607 236.622 619.498C181.513 593.564 143.36 537.545 143.36 472.605C143.36 382.988 216.009 310.336 305.627 310.335C320.595 310.335 335.089 312.373 348.851 316.167C356.265 233.423 425.786 168.568 510.46 168.568Z" fill="url(#paint9_radial_17097_11254)"/>
<path d="M510.46 168.568C595.427 168.57 665.129 233.875 672.136 317.03C686.789 312.681 702.308 310.335 718.373 310.335C807.991 310.336 880.64 382.988 880.64 472.605C880.64 537.545 842.488 593.564 787.378 619.498C798.666 641.608 805.035 666.647 805.035 693.175C805.035 782.792 732.386 855.444 642.768 855.445C589.11 855.445 541.541 829.394 512 789.258C482.459 829.393 434.894 855.445 381.237 855.445C291.618 855.445 218.97 782.793 218.97 693.175C218.97 666.648 225.334 641.607 236.622 619.498C181.513 593.564 143.36 537.545 143.36 472.605C143.36 382.988 216.009 310.336 305.627 310.335C320.595 310.335 335.089 312.373 348.851 316.167C356.265 233.423 425.786 168.568 510.46 168.568Z" fill="url(#paint10_radial_17097_11254)"/>
<path d="M510.46 168.568C595.427 168.57 665.129 233.875 672.136 317.03C686.789 312.681 702.308 310.335 718.373 310.335C807.991 310.336 880.64 382.988 880.64 472.605C880.64 537.545 842.488 593.564 787.378 619.498C798.666 641.608 805.035 666.647 805.035 693.175C805.035 782.792 732.386 855.444 642.768 855.445C589.11 855.445 541.541 829.394 512 789.258C482.459 829.393 434.894 855.445 381.237 855.445C291.618 855.445 218.97 782.793 218.97 693.175C218.97 666.648 225.334 641.607 236.622 619.498C181.513 593.564 143.36 537.545 143.36 472.605C143.36 382.988 216.009 310.336 305.627 310.335C320.595 310.335 335.089 312.373 348.851 316.167C356.265 233.423 425.786 168.568 510.46 168.568Z" fill="url(#paint11_radial_17097_11254)"/>
<path d="M510.46 168.568C595.427 168.57 665.129 233.875 672.136 317.03C686.789 312.681 702.308 310.335 718.373 310.335C807.991 310.336 880.64 382.988 880.64 472.605C880.64 537.545 842.488 593.564 787.378 619.498C798.666 641.608 805.035 666.647 805.035 693.175C805.035 782.792 732.386 855.444 642.768 855.445C589.11 855.445 541.541 829.394 512 789.258C482.459 829.393 434.894 855.445 381.237 855.445C291.618 855.445 218.97 782.793 218.97 693.175C218.97 666.648 225.334 641.607 236.622 619.498C181.513 593.564 143.36 537.545 143.36 472.605C143.36 382.988 216.009 310.336 305.627 310.335C320.595 310.335 335.089 312.373 348.851 316.167C356.265 233.423 425.786 168.568 510.46 168.568Z" fill="url(#paint12_radial_17097_11254)"/>
<path d="M510.46 168.568C595.427 168.57 665.129 233.875 672.136 317.03C686.789 312.681 702.308 310.335 718.373 310.335C807.991 310.336 880.64 382.988 880.64 472.605C880.64 537.545 842.488 593.564 787.378 619.498C798.666 641.608 805.035 666.647 805.035 693.175C805.035 782.792 732.386 855.444 642.768 855.445C589.11 855.445 541.541 829.394 512 789.258C482.459 829.393 434.894 855.445 381.237 855.445C291.618 855.445 218.97 782.793 218.97 693.175C218.97 666.648 225.334 641.607 236.622 619.498C181.513 593.564 143.36 537.545 143.36 472.605C143.36 382.988 216.009 310.336 305.627 310.335C320.595 310.335 335.089 312.373 348.851 316.167C356.265 233.423 425.786 168.568 510.46 168.568Z" fill="url(#paint13_radial_17097_11254)"/>
<path d="M510.46 168.568C595.427 168.57 665.129 233.875 672.136 317.03C686.789 312.681 702.308 310.335 718.373 310.335C807.991 310.336 880.64 382.988 880.64 472.605C880.64 537.545 842.488 593.564 787.378 619.498C798.666 641.608 805.035 666.647 805.035 693.175C805.035 782.792 732.386 855.444 642.768 855.445C589.11 855.445 541.541 829.394 512 789.258C482.459 829.393 434.894 855.445 381.237 855.445C291.618 855.445 218.97 782.793 218.97 693.175C218.97 666.648 225.334 641.607 236.622 619.498C181.513 593.564 143.36 537.545 143.36 472.605C143.36 382.988 216.009 310.336 305.627 310.335C320.595 310.335 335.089 312.373 348.851 316.167C356.265 233.423 425.786 168.568 510.46 168.568Z" fill="url(#paint14_radial_17097_11254)"/>
<path d="M510.46 168.568C595.427 168.57 665.129 233.875 672.136 317.03C686.789 312.681 702.308 310.335 718.373 310.335C807.991 310.336 880.64 382.988 880.64 472.605C880.64 537.545 842.488 593.564 787.378 619.498C798.666 641.608 805.035 666.647 805.035 693.175C805.035 782.792 732.386 855.444 642.768 855.445C589.11 855.445 541.541 829.394 512 789.258C482.459 829.393 434.894 855.445 381.237 855.445C291.618 855.445 218.97 782.793 218.97 693.175C218.97 666.648 225.334 641.607 236.622 619.498C181.513 593.564 143.36 537.545 143.36 472.605C143.36 382.988 216.009 310.336 305.627 310.335C320.595 310.335 335.089 312.373 348.851 316.167C356.265 233.423 425.786 168.568 510.46 168.568Z" fill="url(#paint15_radial_17097_11254)" style="mix-blend-mode:soft-light"/>
<g opacity="0.3">
<mask id="mask0_17097_11254" style="mask-type:alpha" maskUnits="userSpaceOnUse" x="143" y="168" width="738" height="688">
<path d="M510.45 168.561C595.42 168.561 665.127 233.869 672.131 317.026C686.786 312.677 702.306 310.332 718.373 310.332C807.991 310.333 880.639 382.981 880.64 472.597C880.64 537.532 842.492 593.549 787.388 619.484C798.676 641.595 805.045 666.638 805.045 693.167C805.044 782.782 732.394 855.43 642.777 855.432C589.119 855.432 541.55 829.381 512.01 789.245C482.469 829.381 434.904 855.431 381.246 855.432C291.628 855.432 218.976 782.783 218.975 693.167C218.975 666.641 225.34 641.598 236.626 619.489C181.515 593.556 143.36 537.537 143.36 472.597C143.361 382.981 216.01 310.333 305.627 310.332C320.593 310.332 335.086 312.366 348.846 316.158C356.26 233.415 425.777 168.562 510.45 168.561Z" fill="white"/>
<path d="M510.45 168.561C595.42 168.561 665.127 233.869 672.131 317.026C686.786 312.677 702.306 310.332 718.373 310.332C807.991 310.333 880.639 382.981 880.64 472.597C880.64 537.532 842.492 593.549 787.388 619.484C798.676 641.595 805.045 666.638 805.045 693.167C805.044 782.782 732.394 855.43 642.777 855.432C589.119 855.432 541.55 829.381 512.01 789.245C482.469 829.381 434.904 855.431 381.246 855.432C291.628 855.432 218.976 782.783 218.975 693.167C218.975 666.641 225.34 641.598 236.626 619.489C181.515 593.556 143.36 537.537 143.36 472.597C143.361 382.981 216.01 310.333 305.627 310.332C320.593 310.332 335.086 312.366 348.846 316.158C356.26 233.415 425.777 168.562 510.45 168.561Z" fill="url(#paint16_radial_17097_11254)"/>
<path d="M510.45 168.561C595.42 168.561 665.127 233.869 672.131 317.026C686.786 312.677 702.306 310.332 718.373 310.332C807.991 310.333 880.639 382.981 880.64 472.597C880.64 537.532 842.492 593.549 787.388 619.484C798.676 641.595 805.045 666.638 805.045 693.167C805.044 782.782 732.394 855.43 642.777 855.432C589.119 855.432 541.55 829.381 512.01 789.245C482.469 829.381 434.904 855.431 381.246 855.432C291.628 855.432 218.976 782.783 218.975 693.167C218.975 666.641 225.34 641.598 236.626 619.489C181.515 593.556 143.36 537.537 143.36 472.597C143.361 382.981 216.01 310.333 305.627 310.332C320.593 310.332 335.086 312.366 348.846 316.158C356.26 233.415 425.777 168.562 510.45 168.561Z" fill="url(#paint17_radial_17097_11254)"/>
<path d="M510.45 168.561C595.42 168.561 665.127 233.869 672.131 317.026C686.786 312.677 702.306 310.332 718.373 310.332C807.991 310.333 880.639 382.981 880.64 472.597C880.64 537.532 842.492 593.549 787.388 619.484C798.676 641.595 805.045 666.638 805.045 693.167C805.044 782.782 732.394 855.43 642.777 855.432C589.119 855.432 541.55 829.381 512.01 789.245C482.469 829.381 434.904 855.431 381.246 855.432C291.628 855.432 218.976 782.783 218.975 693.167C218.975 666.641 225.34 641.598 236.626 619.489C181.515 593.556 143.36 537.537 143.36 472.597C143.361 382.981 216.01 310.333 305.627 310.332C320.593 310.332 335.086 312.366 348.846 316.158C356.26 233.415 425.777 168.562 510.45 168.561Z" fill="url(#paint18_radial_17097_11254)"/>
<path d="M510.45 168.561C595.42 168.561 665.127 233.869 672.131 317.026C686.786 312.677 702.306 310.332 718.373 310.332C807.991 310.333 880.639 382.981 880.64 472.597C880.64 537.532 842.492 593.549 787.388 619.484C798.676 641.595 805.045 666.638 805.045 693.167C805.044 782.782 732.394 855.43 642.777 855.432C589.119 855.432 541.55 829.381 512.01 789.245C482.469 829.381 434.904 855.431 381.246 855.432C291.628 855.432 218.976 782.783 218.975 693.167C218.975 666.641 225.34 641.598 236.626 619.489C181.515 593.556 143.36 537.537 143.36 472.597C143.361 382.981 216.01 310.333 305.627 310.332C320.593 310.332 335.086 312.366 348.846 316.158C356.26 233.415 425.777 168.562 510.45 168.561Z" fill="url(#paint19_radial_17097_11254)"/>
<path d="M510.45 168.561C595.42 168.561 665.127 233.869 672.131 317.026C686.786 312.677 702.306 310.332 718.373 310.332C807.991 310.333 880.639 382.981 880.64 472.597C880.64 537.532 842.492 593.549 787.388 619.484C798.676 641.595 805.045 666.638 805.045 693.167C805.044 782.782 732.394 855.43 642.777 855.432C589.119 855.432 541.55 829.381 512.01 789.245C482.469 829.381 434.904 855.431 381.246 855.432C291.628 855.432 218.976 782.783 218.975 693.167C218.975 666.641 225.34 641.598 236.626 619.489C181.515 593.556 143.36 537.537 143.36 472.597C143.361 382.981 216.01 310.333 305.627 310.332C320.593 310.332 335.086 312.366 348.846 316.158C356.26 233.415 425.777 168.562 510.45 168.561Z" fill="url(#paint20_radial_17097_11254)"/>
<path d="M510.45 168.561C595.42 168.561 665.127 233.869 672.131 317.026C686.786 312.677 702.306 310.332 718.373 310.332C807.991 310.333 880.639 382.981 880.64 472.597C880.64 537.532 842.492 593.549 787.388 619.484C798.676 641.595 805.045 666.638 805.045 693.167C805.044 782.782 732.394 855.43 642.777 855.432C589.119 855.432 541.55 829.381 512.01 789.245C482.469 829.381 434.904 855.431 381.246 855.432C291.628 855.432 218.976 782.783 218.975 693.167C218.975 666.641 225.34 641.598 236.626 619.489C181.515 593.556 143.36 537.537 143.36 472.597C143.361 382.981 216.01 310.333 305.627 310.332C320.593 310.332 335.086 312.366 348.846 316.158C356.26 233.415 425.777 168.562 510.45 168.561Z" fill="url(#paint21_radial_17097_11254)"/>
<path d="M510.45 168.561C595.42 168.561 665.127 233.869 672.131 317.026C686.786 312.677 702.306 310.332 718.373 310.332C807.991 310.333 880.639 382.981 880.64 472.597C880.64 537.532 842.492 593.549 787.388 619.484C798.676 641.595 805.045 666.638 805.045 693.167C805.044 782.782 732.394 855.43 642.777 855.432C589.119 855.432 541.55 829.381 512.01 789.245C482.469 829.381 434.904 855.431 381.246 855.432C291.628 855.432 218.976 782.783 218.975 693.167C218.975 666.641 225.34 641.598 236.626 619.489C181.515 593.556 143.36 537.537 143.36 472.597C143.361 382.981 216.01 310.333 305.627 310.332C320.593 310.332 335.086 312.366 348.846 316.158C356.26 233.415 425.777 168.562 510.45 168.561Z" fill="url(#paint22_radial_17097_11254)"/>
<path d="M510.45 168.561C595.42 168.561 665.127 233.869 672.131 317.026C686.786 312.677 702.306 310.332 718.373 310.332C807.991 310.333 880.639 382.981 880.64 472.597C880.64 537.532 842.492 593.549 787.388 619.484C798.676 641.595 805.045 666.638 805.045 693.167C805.044 782.782 732.394 855.43 642.777 855.432C589.119 855.432 541.55 829.381 512.01 789.245C482.469 829.381 434.904 855.431 381.246 855.432C291.628 855.432 218.976 782.783 218.975 693.167C218.975 666.641 225.34 641.598 236.626 619.489C181.515 593.556 143.36 537.537 143.36 472.597C143.361 382.981 216.01 310.333 305.627 310.332C320.593 310.332 335.086 312.366 348.846 316.158C356.26 233.415 425.777 168.562 510.45 168.561Z" fill="url(#paint23_radial_17097_11254)"/>
</mask>
<g mask="url(#mask0_17097_11254)">
<g style="mix-blend-mode:color-dodge" filter="url(#filter1_f_17097_11254)">
<path d="M553.498 201.21C441.199 210.975 421.668 313.512 387.49 313.512C320.076 313.512 319.134 268.627 319.134 201.212C319.134 133.798 376.225 108.443 443.64 108.443C511.054 108.443 568.146 103.558 553.498 201.21Z" fill="white"/>
</g>
<g style="mix-blend-mode:color-dodge" opacity="0.8" filter="url(#filter2_f_17097_11254)">
<path d="M887.937 439.535C887.937 494.815 808.946 371.184 753.666 371.184C698.386 371.184 677.986 380.949 668.221 341.886C668.221 286.606 717.047 288.179 768.314 300.386C922.115 337.008 887.937 384.255 887.937 439.535Z" fill="white"/>
</g>
<g style="mix-blend-mode:color-dodge" filter="url(#filter3_f_17097_11254)">
<path d="M831.797 752.028C831.797 805.959 773.435 835.032 719.504 835.032C665.572 835.032 748.795 769.34 748.795 715.408C748.795 661.477 731.481 617.757 785.412 617.757C839.344 617.757 831.797 698.096 831.797 752.028Z" fill="white"/>
</g>
<g style="mix-blend-mode:color-dodge" filter="url(#filter4_f_17097_11254)">
<path d="M280.063 708.084C267.857 739.821 370.391 815.501 319.124 830.149C258.534 830.149 189.736 793.087 189.736 732.497C189.736 671.908 195.061 617.757 255.65 617.757C316.24 617.757 280.063 647.495 280.063 708.084Z" fill="white"/>
</g>
<g style="mix-blend-mode:color-dodge" filter="url(#filter5_f_17097_11254)">
<path d="M260.541 429.783C203.092 485.933 256.324 542.082 197.081 542.082C137.839 542.082 109.189 468.843 133.598 388.281C179.985 310.159 253.708 300.394 312.95 300.394C372.192 300.394 370.399 363.868 260.541 429.783Z" fill="white"/>
</g>
</g>
</g>
<g opacity="0.2">
<mask id="mask1_17097_11254" style="mask-type:alpha" maskUnits="userSpaceOnUse" x="143" y="168" width="738" height="688">
<path d="M510.45 168.561C595.42 168.561 665.127 233.869 672.131 317.026C686.786 312.677 702.306 310.332 718.373 310.332C807.991 310.333 880.639 382.981 880.64 472.597C880.64 537.532 842.492 593.549 787.388 619.484C798.676 641.595 805.045 666.638 805.045 693.167C805.044 782.782 732.394 855.43 642.777 855.432C589.119 855.432 541.55 829.381 512.01 789.245C482.469 829.381 434.904 855.431 381.246 855.432C291.628 855.432 218.976 782.783 218.975 693.167C218.975 666.641 225.34 641.598 236.626 619.489C181.515 593.556 143.36 537.537 143.36 472.597C143.361 382.981 216.01 310.333 305.627 310.332C320.593 310.332 335.086 312.366 348.846 316.158C356.26 233.415 425.777 168.562 510.45 168.561Z" fill="white"/>
<path d="M510.45 168.561C595.42 168.561 665.127 233.869 672.131 317.026C686.786 312.677 702.306 310.332 718.373 310.332C807.991 310.333 880.639 382.981 880.64 472.597C880.64 537.532 842.492 593.549 787.388 619.484C798.676 641.595 805.045 666.638 805.045 693.167C805.044 782.782 732.394 855.43 642.777 855.432C589.119 855.432 541.55 829.381 512.01 789.245C482.469 829.381 434.904 855.431 381.246 855.432C291.628 855.432 218.976 782.783 218.975 693.167C218.975 666.641 225.34 641.598 236.626 619.489C181.515 593.556 143.36 537.537 143.36 472.597C143.361 382.981 216.01 310.333 305.627 310.332C320.593 310.332 335.086 312.366 348.846 316.158C356.26 233.415 425.777 168.562 510.45 168.561Z" fill="url(#paint24_radial_17097_11254)"/>
<path d="M510.45 168.561C595.42 168.561 665.127 233.869 672.131 317.026C686.786 312.677 702.306 310.332 718.373 310.332C807.991 310.333 880.639 382.981 880.64 472.597C880.64 537.532 842.492 593.549 787.388 619.484C798.676 641.595 805.045 666.638 805.045 693.167C805.044 782.782 732.394 855.43 642.777 855.432C589.119 855.432 541.55 829.381 512.01 789.245C482.469 829.381 434.904 855.431 381.246 855.432C291.628 855.432 218.976 782.783 218.975 693.167C218.975 666.641 225.34 641.598 236.626 619.489C181.515 593.556 143.36 537.537 143.36 472.597C143.361 382.981 216.01 310.333 305.627 310.332C320.593 310.332 335.086 312.366 348.846 316.158C356.26 233.415 425.777 168.562 510.45 168.561Z" fill="url(#paint25_radial_17097_11254)"/>
<path d="M510.45 168.561C595.42 168.561 665.127 233.869 672.131 317.026C686.786 312.677 702.306 310.332 718.373 310.332C807.991 310.333 880.639 382.981 880.64 472.597C880.64 537.532 842.492 593.549 787.388 619.484C798.676 641.595 805.045 666.638 805.045 693.167C805.044 782.782 732.394 855.43 642.777 855.432C589.119 855.432 541.55 829.381 512.01 789.245C482.469 829.381 434.904 855.431 381.246 855.432C291.628 855.432 218.976 782.783 218.975 693.167C218.975 666.641 225.34 641.598 236.626 619.489C181.515 593.556 143.36 537.537 143.36 472.597C143.361 382.981 216.01 310.333 305.627 310.332C320.593 310.332 335.086 312.366 348.846 316.158C356.26 233.415 425.777 168.562 510.45 168.561Z" fill="url(#paint26_radial_17097_11254)"/>
<path d="M510.45 168.561C595.42 168.561 665.127 233.869 672.131 317.026C686.786 312.677 702.306 310.332 718.373 310.332C807.991 310.333 880.639 382.981 880.64 472.597C880.64 537.532 842.492 593.549 787.388 619.484C798.676 641.595 805.045 666.638 805.045 693.167C805.044 782.782 732.394 855.43 642.777 855.432C589.119 855.432 541.55 829.381 512.01 789.245C482.469 829.381 434.904 855.431 381.246 855.432C291.628 855.432 218.976 782.783 218.975 693.167C218.975 666.641 225.34 641.598 236.626 619.489C181.515 593.556 143.36 537.537 143.36 472.597C143.361 382.981 216.01 310.333 305.627 310.332C320.593 310.332 335.086 312.366 348.846 316.158C356.26 233.415 425.777 168.562 510.45 168.561Z" fill="url(#paint27_radial_17097_11254)"/>
<path d="M510.45 168.561C595.42 168.561 665.127 233.869 672.131 317.026C686.786 312.677 702.306 310.332 718.373 310.332C807.991 310.333 880.639 382.981 880.64 472.597C880.64 537.532 842.492 593.549 787.388 619.484C798.676 641.595 805.045 666.638 805.045 693.167C805.044 782.782 732.394 855.43 642.777 855.432C589.119 855.432 541.55 829.381 512.01 789.245C482.469 829.381 434.904 855.431 381.246 855.432C291.628 855.432 218.976 782.783 218.975 693.167C218.975 666.641 225.34 641.598 236.626 619.489C181.515 593.556 143.36 537.537 143.36 472.597C143.361 382.981 216.01 310.333 305.627 310.332C320.593 310.332 335.086 312.366 348.846 316.158C356.26 233.415 425.777 168.562 510.45 168.561Z" fill="url(#paint28_radial_17097_11254)"/>
<path d="M510.45 168.561C595.42 168.561 665.127 233.869 672.131 317.026C686.786 312.677 702.306 310.332 718.373 310.332C807.991 310.333 880.639 382.981 880.64 472.597C880.64 537.532 842.492 593.549 787.388 619.484C798.676 641.595 805.045 666.638 805.045 693.167C805.044 782.782 732.394 855.43 642.777 855.432C589.119 855.432 541.55 829.381 512.01 789.245C482.469 829.381 434.904 855.431 381.246 855.432C291.628 855.432 218.976 782.783 218.975 693.167C218.975 666.641 225.34 641.598 236.626 619.489C181.515 593.556 143.36 537.537 143.36 472.597C143.361 382.981 216.01 310.333 305.627 310.332C320.593 310.332 335.086 312.366 348.846 316.158C356.26 233.415 425.777 168.562 510.45 168.561Z" fill="url(#paint29_radial_17097_11254)"/>
<path d="M510.45 168.561C595.42 168.561 665.127 233.869 672.131 317.026C686.786 312.677 702.306 310.332 718.373 310.332C807.991 310.333 880.639 382.981 880.64 472.597C880.64 537.532 842.492 593.549 787.388 619.484C798.676 641.595 805.045 666.638 805.045 693.167C805.044 782.782 732.394 855.43 642.777 855.432C589.119 855.432 541.55 829.381 512.01 789.245C482.469 829.381 434.904 855.431 381.246 855.432C291.628 855.432 218.976 782.783 218.975 693.167C218.975 666.641 225.34 641.598 236.626 619.489C181.515 593.556 143.36 537.537 143.36 472.597C143.361 382.981 216.01 310.333 305.627 310.332C320.593 310.332 335.086 312.366 348.846 316.158C356.26 233.415 425.777 168.562 510.45 168.561Z" fill="url(#paint30_radial_17097_11254)"/>
<path d="M510.45 168.561C595.42 168.561 665.127 233.869 672.131 317.026C686.786 312.677 702.306 310.332 718.373 310.332C807.991 310.333 880.639 382.981 880.64 472.597C880.64 537.532 842.492 593.549 787.388 619.484C798.676 641.595 805.045 666.638 805.045 693.167C805.044 782.782 732.394 855.43 642.777 855.432C589.119 855.432 541.55 829.381 512.01 789.245C482.469 829.381 434.904 855.431 381.246 855.432C291.628 855.432 218.976 782.783 218.975 693.167C218.975 666.641 225.34 641.598 236.626 619.489C181.515 593.556 143.36 537.537 143.36 472.597C143.361 382.981 216.01 310.333 305.627 310.332C320.593 310.332 335.086 312.366 348.846 316.158C356.26 233.415 425.777 168.562 510.45 168.561Z" fill="url(#paint31_radial_17097_11254)"/>
</mask>
<g mask="url(#mask1_17097_11254)">
<g style="mix-blend-mode:color-dodge" opacity="0.1" filter="url(#filter6_f_17097_11254)">
<path d="M553.498 201.21C441.199 210.975 421.668 313.512 387.49 313.512C320.076 313.512 319.134 268.627 319.134 201.212C319.134 133.798 376.225 108.443 443.64 108.443C511.054 108.443 568.146 103.558 553.498 201.21Z" fill="white"/>
</g>
<g style="mix-blend-mode:color-dodge" opacity="0.2" filter="url(#filter7_f_17097_11254)">
<path d="M887.937 439.535C887.937 494.815 808.946 371.184 753.666 371.184C698.386 371.184 677.986 380.949 668.221 341.886C668.221 286.606 717.047 288.179 768.314 300.386C922.115 337.008 887.937 384.255 887.937 439.535Z" fill="white"/>
</g>
<g style="mix-blend-mode:color-dodge" filter="url(#filter8_f_17097_11254)">
<path d="M280.063 708.084C267.857 739.821 370.391 815.501 319.124 830.149C258.534 830.149 189.736 793.087 189.736 732.497C189.736 671.908 195.061 617.757 255.65 617.757C316.24 617.757 280.063 647.495 280.063 708.084Z" fill="white"/>
</g>
<g style="mix-blend-mode:color-dodge" opacity="0.1" filter="url(#filter9_f_17097_11254)">
<path d="M260.541 429.783C203.092 485.933 256.324 542.082 197.081 542.082C137.839 542.082 109.189 468.843 133.598 388.281C179.985 310.159 253.708 300.394 312.95 300.394C372.192 300.394 370.399 363.868 260.541 429.783Z" fill="white"/>
</g>
</g>
</g>
<mask id="mask2_17097_11254" style="mask-type:alpha" maskUnits="userSpaceOnUse" x="143" y="168" width="738" height="688">
<path d="M510.45 168.561C595.42 168.561 665.126 233.869 672.131 317.026C686.786 312.677 702.306 310.332 718.373 310.332C807.991 310.333 880.639 382.984 880.639 472.602C880.639 537.537 842.49 593.549 787.387 619.484C798.676 641.595 805.044 666.638 805.045 693.167C805.044 782.784 732.395 855.435 642.778 855.437C589.12 855.437 541.55 829.386 512.01 789.25C482.469 829.385 434.903 855.436 381.246 855.437C291.627 855.436 218.975 782.785 218.974 693.167C218.975 666.642 225.34 641.603 236.626 619.494C181.515 593.561 143.361 537.542 143.36 472.602C143.36 382.985 216.009 310.333 305.627 310.332C320.593 310.332 335.086 312.366 348.846 316.158C356.261 233.415 425.777 168.562 510.45 168.561Z" fill="white"/>
<path d="M510.45 168.561C595.42 168.561 665.126 233.869 672.131 317.026C686.786 312.677 702.306 310.332 718.373 310.332C807.991 310.333 880.639 382.984 880.639 472.602C880.639 537.537 842.49 593.549 787.387 619.484C798.676 641.595 805.044 666.638 805.045 693.167C805.044 782.784 732.395 855.435 642.778 855.437C589.12 855.437 541.55 829.386 512.01 789.25C482.469 829.385 434.903 855.436 381.246 855.437C291.627 855.436 218.975 782.785 218.974 693.167C218.975 666.642 225.34 641.603 236.626 619.494C181.515 593.561 143.361 537.542 143.36 472.602C143.36 382.985 216.009 310.333 305.627 310.332C320.593 310.332 335.086 312.366 348.846 316.158C356.261 233.415 425.777 168.562 510.45 168.561Z" fill="url(#paint32_radial_17097_11254)"/>
<path d="M510.45 168.561C595.42 168.561 665.126 233.869 672.131 317.026C686.786 312.677 702.306 310.332 718.373 310.332C807.991 310.333 880.639 382.984 880.639 472.602C880.639 537.537 842.49 593.549 787.387 619.484C798.676 641.595 805.044 666.638 805.045 693.167C805.044 782.784 732.395 855.435 642.778 855.437C589.12 855.437 541.55 829.386 512.01 789.25C482.469 829.385 434.903 855.436 381.246 855.437C291.627 855.436 218.975 782.785 218.974 693.167C218.975 666.642 225.34 641.603 236.626 619.494C181.515 593.561 143.361 537.542 143.36 472.602C143.36 382.985 216.009 310.333 305.627 310.332C320.593 310.332 335.086 312.366 348.846 316.158C356.261 233.415 425.777 168.562 510.45 168.561Z" fill="url(#paint33_radial_17097_11254)"/>
<path d="M510.45 168.561C595.42 168.561 665.126 233.869 672.131 317.026C686.786 312.677 702.306 310.332 718.373 310.332C807.991 310.333 880.639 382.984 880.639 472.602C880.639 537.537 842.49 593.549 787.387 619.484C798.676 641.595 805.044 666.638 805.045 693.167C805.044 782.784 732.395 855.435 642.778 855.437C589.12 855.437 541.55 829.386 512.01 789.25C482.469 829.385 434.903 855.436 381.246 855.437C291.627 855.436 218.975 782.785 218.974 693.167C218.975 666.642 225.34 641.603 236.626 619.494C181.515 593.561 143.361 537.542 143.36 472.602C143.36 382.985 216.009 310.333 305.627 310.332C320.593 310.332 335.086 312.366 348.846 316.158C356.261 233.415 425.777 168.562 510.45 168.561Z" fill="url(#paint34_radial_17097_11254)"/>
<path d="M510.45 168.561C595.42 168.561 665.126 233.869 672.131 317.026C686.786 312.677 702.306 310.332 718.373 310.332C807.991 310.333 880.639 382.984 880.639 472.602C880.639 537.537 842.49 593.549 787.387 619.484C798.676 641.595 805.044 666.638 805.045 693.167C805.044 782.784 732.395 855.435 642.778 855.437C589.12 855.437 541.55 829.386 512.01 789.25C482.469 829.385 434.903 855.436 381.246 855.437C291.627 855.436 218.975 782.785 218.974 693.167C218.975 666.642 225.34 641.603 236.626 619.494C181.515 593.561 143.361 537.542 143.36 472.602C143.36 382.985 216.009 310.333 305.627 310.332C320.593 310.332 335.086 312.366 348.846 316.158C356.261 233.415 425.777 168.562 510.45 168.561Z" fill="url(#paint35_radial_17097_11254)"/>
<path d="M510.45 168.561C595.42 168.561 665.126 233.869 672.131 317.026C686.786 312.677 702.306 310.332 718.373 310.332C807.991 310.333 880.639 382.984 880.639 472.602C880.639 537.537 842.49 593.549 787.387 619.484C798.676 641.595 805.044 666.638 805.045 693.167C805.044 782.784 732.395 855.435 642.778 855.437C589.12 855.437 541.55 829.386 512.01 789.25C482.469 829.385 434.903 855.436 381.246 855.437C291.627 855.436 218.975 782.785 218.974 693.167C218.975 666.642 225.34 641.603 236.626 619.494C181.515 593.561 143.361 537.542 143.36 472.602C143.36 382.985 216.009 310.333 305.627 310.332C320.593 310.332 335.086 312.366 348.846 316.158C356.261 233.415 425.777 168.562 510.45 168.561Z" fill="url(#paint36_radial_17097_11254)"/>
<path d="M510.45 168.561C595.42 168.561 665.126 233.869 672.131 317.026C686.786 312.677 702.306 310.332 718.373 310.332C807.991 310.333 880.639 382.984 880.639 472.602C880.639 537.537 842.49 593.549 787.387 619.484C798.676 641.595 805.044 666.638 805.045 693.167C805.044 782.784 732.395 855.435 642.778 855.437C589.12 855.437 541.55 829.386 512.01 789.25C482.469 829.385 434.903 855.436 381.246 855.437C291.627 855.436 218.975 782.785 218.974 693.167C218.975 666.642 225.34 641.603 236.626 619.494C181.515 593.561 143.361 537.542 143.36 472.602C143.36 382.985 216.009 310.333 305.627 310.332C320.593 310.332 335.086 312.366 348.846 316.158C356.261 233.415 425.777 168.562 510.45 168.561Z" fill="url(#paint37_radial_17097_11254)"/>
<path d="M510.45 168.561C595.42 168.561 665.126 233.869 672.131 317.026C686.786 312.677 702.306 310.332 718.373 310.332C807.991 310.333 880.639 382.984 880.639 472.602C880.639 537.537 842.49 593.549 787.387 619.484C798.676 641.595 805.044 666.638 805.045 693.167C805.044 782.784 732.395 855.435 642.778 855.437C589.12 855.437 541.55 829.386 512.01 789.25C482.469 829.385 434.903 855.436 381.246 855.437C291.627 855.436 218.975 782.785 218.974 693.167C218.975 666.642 225.34 641.603 236.626 619.494C181.515 593.561 143.361 537.542 143.36 472.602C143.36 382.985 216.009 310.333 305.627 310.332C320.593 310.332 335.086 312.366 348.846 316.158C356.261 233.415 425.777 168.562 510.45 168.561Z" fill="url(#paint38_radial_17097_11254)"/>
<path d="M510.45 168.561C595.42 168.561 665.126 233.869 672.131 317.026C686.786 312.677 702.306 310.332 718.373 310.332C807.991 310.333 880.639 382.984 880.639 472.602C880.639 537.537 842.49 593.549 787.387 619.484C798.676 641.595 805.044 666.638 805.045 693.167C805.044 782.784 732.395 855.435 642.778 855.437C589.12 855.437 541.55 829.386 512.01 789.25C482.469 829.385 434.903 855.436 381.246 855.437C291.627 855.436 218.975 782.785 218.974 693.167C218.975 666.642 225.34 641.603 236.626 619.494C181.515 593.561 143.361 537.542 143.36 472.602C143.36 382.985 216.009 310.333 305.627 310.332C320.593 310.332 335.086 312.366 348.846 316.158C356.261 233.415 425.777 168.562 510.45 168.561Z" fill="url(#paint39_radial_17097_11254)"/>
</mask>
<g mask="url(#mask2_17097_11254)">
<g style="mix-blend-mode:color-burn">
<path d="M407.03 439.556C319.144 376.082 226.375 354.111 167.797 385.847L180.001 358.99L214.179 319.929L260.563 305.282L311.835 300.401L348.868 316.168C348.868 329.692 353.322 400.766 407.03 439.556Z" fill="url(#paint40_linear_17097_11254)"/>
</g>
<g style="mix-blend-mode:color-burn">
<path d="M579.471 412.428C598.21 340.118 617.898 250.321 563.272 177.341L599.893 163.672L668.239 212.492L672.155 316.983C661.942 319.647 604.487 336.04 579.471 412.428C577.273 420.909 575.089 429.15 573.038 437.095C574.808 428.246 576.979 420.039 579.471 412.428Z" fill="url(#paint41_linear_17097_11254)"/>
</g>
<g style="mix-blend-mode:color-burn">
<path d="M350.775 613.28C308.323 639.581 247.043 678.8 258.12 798.425C231.265 781.33 219.058 771.564 214.178 725.185L211.731 666.594L221.486 634.852L236.577 619.524C240.71 620.16 295.932 643.441 350.775 613.28C355.107 610.596 359.242 608.046 363.085 605.56C358.998 608.455 354.888 611.018 350.775 613.28Z" fill="url(#paint42_linear_17097_11254)"/>
</g>
<g style="mix-blend-mode:color-burn">
<path d="M522.01 671.477C533.792 737.802 574.772 826.339 675.08 851.665L636.502 881.423L565.704 883.864C555.124 873.79 533.477 853.246 531.524 851.666C529.571 850.085 513.089 816.403 505.093 799.759C512.258 785.995 534.588 767.591 522.01 671.477Z" fill="url(#paint43_linear_17097_11254)"/>
</g>
<g style="mix-blend-mode:color-burn">
<path d="M651.18 556.733C743.95 556.733 814.383 584.74 881.154 471.288L887.99 576.259L822.077 607.999L787.411 619.473C773.246 598.235 748.833 556.733 651.18 556.733Z" fill="url(#paint44_linear_17097_11254)"/>
</g>
</g>
<mask id="mask3_17097_11254" style="mask-type:alpha" maskUnits="userSpaceOnUse" x="143" y="168" width="738" height="688">
<path d="M510.45 168.561C595.42 168.561 665.126 233.869 672.131 317.026C686.786 312.677 702.306 310.332 718.373 310.332C807.991 310.333 880.639 382.984 880.639 472.602C880.639 537.537 842.49 593.549 787.387 619.484C798.676 641.595 805.044 666.638 805.045 693.167C805.044 782.784 732.395 855.435 642.778 855.437C589.12 855.437 541.55 829.386 512.01 789.25C482.469 829.385 434.903 855.436 381.246 855.437C291.627 855.436 218.975 782.785 218.974 693.167C218.975 666.642 225.34 641.603 236.626 619.494C181.515 593.561 143.361 537.542 143.36 472.602C143.36 382.985 216.009 310.333 305.627 310.332C320.593 310.332 335.086 312.366 348.846 316.158C356.261 233.415 425.777 168.562 510.45 168.561Z" fill="white"/>
<path d="M510.45 168.561C595.42 168.561 665.126 233.869 672.131 317.026C686.786 312.677 702.306 310.332 718.373 310.332C807.991 310.333 880.639 382.984 880.639 472.602C880.639 537.537 842.49 593.549 787.387 619.484C798.676 641.595 805.044 666.638 805.045 693.167C805.044 782.784 732.395 855.435 642.778 855.437C589.12 855.437 541.55 829.386 512.01 789.25C482.469 829.385 434.903 855.436 381.246 855.437C291.627 855.436 218.975 782.785 218.974 693.167C218.975 666.642 225.34 641.603 236.626 619.494C181.515 593.561 143.361 537.542 143.36 472.602C143.36 382.985 216.009 310.333 305.627 310.332C320.593 310.332 335.086 312.366 348.846 316.158C356.261 233.415 425.777 168.562 510.45 168.561Z" fill="url(#paint45_radial_17097_11254)"/>
<path d="M510.45 168.561C595.42 168.561 665.126 233.869 672.131 317.026C686.786 312.677 702.306 310.332 718.373 310.332C807.991 310.333 880.639 382.984 880.639 472.602C880.639 537.537 842.49 593.549 787.387 619.484C798.676 641.595 805.044 666.638 805.045 693.167C805.044 782.784 732.395 855.435 642.778 855.437C589.12 855.437 541.55 829.386 512.01 789.25C482.469 829.385 434.903 855.436 381.246 855.437C291.627 855.436 218.975 782.785 218.974 693.167C218.975 666.642 225.34 641.603 236.626 619.494C181.515 593.561 143.361 537.542 143.36 472.602C143.36 382.985 216.009 310.333 305.627 310.332C320.593 310.332 335.086 312.366 348.846 316.158C356.261 233.415 425.777 168.562 510.45 168.561Z" fill="url(#paint46_radial_17097_11254)"/>
<path d="M510.45 168.561C595.42 168.561 665.126 233.869 672.131 317.026C686.786 312.677 702.306 310.332 718.373 310.332C807.991 310.333 880.639 382.984 880.639 472.602C880.639 537.537 842.49 593.549 787.387 619.484C798.676 641.595 805.044 666.638 805.045 693.167C805.044 782.784 732.395 855.435 642.778 855.437C589.12 855.437 541.55 829.386 512.01 789.25C482.469 829.385 434.903 855.436 381.246 855.437C291.627 855.436 218.975 782.785 218.974 693.167C218.975 666.642 225.34 641.603 236.626 619.494C181.515 593.561 143.361 537.542 143.36 472.602C143.36 382.985 216.009 310.333 305.627 310.332C320.593 310.332 335.086 312.366 348.846 316.158C356.261 233.415 425.777 168.562 510.45 168.561Z" fill="url(#paint47_radial_17097_11254)"/>
<path d="M510.45 168.561C595.42 168.561 665.126 233.869 672.131 317.026C686.786 312.677 702.306 310.332 718.373 310.332C807.991 310.333 880.639 382.984 880.639 472.602C880.639 537.537 842.49 593.549 787.387 619.484C798.676 641.595 805.044 666.638 805.045 693.167C805.044 782.784 732.395 855.435 642.778 855.437C589.12 855.437 541.55 829.386 512.01 789.25C482.469 829.385 434.903 855.436 381.246 855.437C291.627 855.436 218.975 782.785 218.974 693.167C218.975 666.642 225.34 641.603 236.626 619.494C181.515 593.561 143.361 537.542 143.36 472.602C143.36 382.985 216.009 310.333 305.627 310.332C320.593 310.332 335.086 312.366 348.846 316.158C356.261 233.415 425.777 168.562 510.45 168.561Z" fill="url(#paint48_radial_17097_11254)"/>
<path d="M510.45 168.561C595.42 168.561 665.126 233.869 672.131 317.026C686.786 312.677 702.306 310.332 718.373 310.332C807.991 310.333 880.639 382.984 880.639 472.602C880.639 537.537 842.49 593.549 787.387 619.484C798.676 641.595 805.044 666.638 805.045 693.167C805.044 782.784 732.395 855.435 642.778 855.437C589.12 855.437 541.55 829.386 512.01 789.25C482.469 829.385 434.903 855.436 381.246 855.437C291.627 855.436 218.975 782.785 218.974 693.167C218.975 666.642 225.34 641.603 236.626 619.494C181.515 593.561 143.361 537.542 143.36 472.602C143.36 382.985 216.009 310.333 305.627 310.332C320.593 310.332 335.086 312.366 348.846 316.158C356.261 233.415 425.777 168.562 510.45 168.561Z" fill="url(#paint49_radial_17097_11254)"/>
<path d="M510.45 168.561C595.42 168.561 665.126 233.869 672.131 317.026C686.786 312.677 702.306 310.332 718.373 310.332C807.991 310.333 880.639 382.984 880.639 472.602C880.639 537.537 842.49 593.549 787.387 619.484C798.676 641.595 805.044 666.638 805.045 693.167C805.044 782.784 732.395 855.435 642.778 855.437C589.12 855.437 541.55 829.386 512.01 789.25C482.469 829.385 434.903 855.436 381.246 855.437C291.627 855.436 218.975 782.785 218.974 693.167C218.975 666.642 225.34 641.603 236.626 619.494C181.515 593.561 143.361 537.542 143.36 472.602C143.36 382.985 216.009 310.333 305.627 310.332C320.593 310.332 335.086 312.366 348.846 316.158C356.261 233.415 425.777 168.562 510.45 168.561Z" fill="url(#paint50_radial_17097_11254)"/>
<path d="M510.45 168.561C595.42 168.561 665.126 233.869 672.131 317.026C686.786 312.677 702.306 310.332 718.373 310.332C807.991 310.333 880.639 382.984 880.639 472.602C880.639 537.537 842.49 593.549 787.387 619.484C798.676 641.595 805.044 666.638 805.045 693.167C805.044 782.784 732.395 855.435 642.778 855.437C589.12 855.437 541.55 829.386 512.01 789.25C482.469 829.385 434.903 855.436 381.246 855.437C291.627 855.436 218.975 782.785 218.974 693.167C218.975 666.642 225.34 641.603 236.626 619.494C181.515 593.561 143.361 537.542 143.36 472.602C143.36 382.985 216.009 310.333 305.627 310.332C320.593 310.332 335.086 312.366 348.846 316.158C356.261 233.415 425.777 168.562 510.45 168.561Z" fill="url(#paint51_radial_17097_11254)"/>
<path d="M510.45 168.561C595.42 168.561 665.126 233.869 672.131 317.026C686.786 312.677 702.306 310.332 718.373 310.332C807.991 310.333 880.639 382.984 880.639 472.602C880.639 537.537 842.49 593.549 787.387 619.484C798.676 641.595 805.044 666.638 805.045 693.167C805.044 782.784 732.395 855.435 642.778 855.437C589.12 855.437 541.55 829.386 512.01 789.25C482.469 829.385 434.903 855.436 381.246 855.437C291.627 855.436 218.975 782.785 218.974 693.167C218.975 666.642 225.34 641.603 236.626 619.494C181.515 593.561 143.361 537.542 143.36 472.602C143.36 382.985 216.009 310.333 305.627 310.332C320.593 310.332 335.086 312.366 348.846 316.158C356.261 233.415 425.777 168.562 510.45 168.561Z" fill="url(#paint52_radial_17097_11254)"/>
</mask>
<g mask="url(#mask3_17097_11254)">
<g style="mix-blend-mode:color-burn">
<path d="M407.03 439.556C319.144 376.082 226.375 354.111 167.797 385.847L180.001 358.99L214.179 319.929L260.563 305.282L311.835 300.401L348.868 316.168C348.868 329.692 353.322 400.766 407.03 439.556Z" fill="url(#paint53_linear_17097_11254)"/>
</g>
<g style="mix-blend-mode:color-burn">
<path d="M579.471 412.428C598.21 340.118 617.898 250.321 563.272 177.341L599.893 163.672L668.239 212.492L672.155 316.983C661.942 319.647 604.487 336.04 579.471 412.428C577.273 420.909 575.089 429.15 573.038 437.095C574.808 428.246 576.979 420.039 579.471 412.428Z" fill="url(#paint54_linear_17097_11254)"/>
</g>
<g style="mix-blend-mode:color-burn">
<path d="M350.775 613.28C308.323 639.581 247.043 678.8 258.12 798.425C231.265 781.33 219.058 771.564 214.178 725.185L211.731 666.594L221.486 634.852L236.577 619.524C240.71 620.16 295.932 643.441 350.775 613.28C355.107 610.596 359.242 608.046 363.085 605.56C358.998 608.455 354.888 611.018 350.775 613.28Z" fill="url(#paint55_linear_17097_11254)"/>
</g>
<g style="mix-blend-mode:color-burn">
<path d="M522.01 671.477C533.792 737.802 574.772 826.339 675.08 851.665L636.502 881.423L565.704 883.864C555.124 873.79 533.477 853.246 531.524 851.666C529.571 850.085 513.089 816.403 505.093 799.759C512.258 785.995 534.588 767.591 522.01 671.477Z" fill="url(#paint56_linear_17097_11254)"/>
</g>
<g style="mix-blend-mode:color-burn">
<path d="M651.18 556.733C743.95 556.733 814.383 584.74 881.154 471.288L887.99 576.259L822.077 607.999L787.411 619.473C773.246 598.235 748.833 556.733 651.18 556.733Z" fill="url(#paint57_linear_17097_11254)"/>
</g>
<g style="mix-blend-mode:plus-darker" opacity="0.1" filter="url(#filter10_f_17097_11254)">
<path d="M753.069 821.437C717.714 877.057 638.467 868.781 582.847 833.427C527.226 798.072 656.119 784.88 691.474 729.26C726.83 673.64 737.634 617.201 793.254 652.556C848.875 687.91 788.424 765.817 753.069 821.437Z" fill="black"/>
</g>
</g>
<defs>
<filter id="filter0_f_17097_11254" x="77.3601" y="102.568" width="869.28" height="818.876" filterUnits="userSpaceOnUse" color-interpolation-filters="sRGB">
<feFlood flood-opacity="0" result="BackgroundImageFix"/>
<feBlend mode="normal" in="SourceGraphic" in2="BackgroundImageFix" result="shape"/>
<feGaussianBlur stdDeviation="33" result="effect1_foregroundBlur_17097_11254"/>
</filter>
<filter id="filter1_f_17097_11254" x="239.134" y="28.4028" width="396.677" height="365.109" filterUnits="userSpaceOnUse" color-interpolation-filters="sRGB">
<feFlood flood-opacity="0" result="BackgroundImageFix"/>
<feBlend mode="normal" in="SourceGraphic" in2="BackgroundImageFix" result="shape"/>
<feGaussianBlur stdDeviation="40" result="effect1_foregroundBlur_17097_11254"/>
</filter>
<filter id="filter2_f_17097_11254" x="536.221" y="161.435" width="486.952" height="424.328" filterUnits="userSpaceOnUse" color-interpolation-filters="sRGB">
<feFlood flood-opacity="0" result="BackgroundImageFix"/>
<feBlend mode="normal" in="SourceGraphic" in2="BackgroundImageFix" result="shape"/>
<feGaussianBlur stdDeviation="66" result="effect1_foregroundBlur_17097_11254"/>
</filter>
<filter id="filter3_f_17097_11254" x="569.321" y="485.757" width="394.836" height="481.275" filterUnits="userSpaceOnUse" color-interpolation-filters="sRGB">
<feFlood flood-opacity="0" result="BackgroundImageFix"/>
<feBlend mode="normal" in="SourceGraphic" in2="BackgroundImageFix" result="shape"/>
<feGaussianBlur stdDeviation="66" result="effect1_foregroundBlur_17097_11254"/>
</filter>
<filter id="filter4_f_17097_11254" x="109.736" y="537.757" width="303.843" height="372.393" filterUnits="userSpaceOnUse" color-interpolation-filters="sRGB">
<feFlood flood-opacity="0" result="BackgroundImageFix"/>
<feBlend mode="normal" in="SourceGraphic" in2="BackgroundImageFix" result="shape"/>
<feGaussianBlur stdDeviation="40" result="effect1_foregroundBlur_17097_11254"/>
</filter>
<filter id="filter5_f_17097_11254" x="44.8809" y="220.394" width="386.931" height="401.688" filterUnits="userSpaceOnUse" color-interpolation-filters="sRGB">
<feFlood flood-opacity="0" result="BackgroundImageFix"/>
<feBlend mode="normal" in="SourceGraphic" in2="BackgroundImageFix" result="shape"/>
<feGaussianBlur stdDeviation="40" result="effect1_foregroundBlur_17097_11254"/>
</filter>
<filter id="filter6_f_17097_11254" x="239.134" y="28.4028" width="396.677" height="365.109" filterUnits="userSpaceOnUse" color-interpolation-filters="sRGB">
<feFlood flood-opacity="0" result="BackgroundImageFix"/>
<feBlend mode="normal" in="SourceGraphic" in2="BackgroundImageFix" result="shape"/>
<feGaussianBlur stdDeviation="40" result="effect1_foregroundBlur_17097_11254"/>
</filter>
<filter id="filter7_f_17097_11254" x="536.221" y="161.435" width="486.952" height="424.328" filterUnits="userSpaceOnUse" color-interpolation-filters="sRGB">
<feFlood flood-opacity="0" result="BackgroundImageFix"/>
<feBlend mode="normal" in="SourceGraphic" in2="BackgroundImageFix" result="shape"/>
<feGaussianBlur stdDeviation="66" result="effect1_foregroundBlur_17097_11254"/>
</filter>
<filter id="filter8_f_17097_11254" x="109.736" y="537.757" width="303.843" height="372.393" filterUnits="userSpaceOnUse" color-interpolation-filters="sRGB">
<feFlood flood-opacity="0" result="BackgroundImageFix"/>
<feBlend mode="normal" in="SourceGraphic" in2="BackgroundImageFix" result="shape"/>
<feGaussianBlur stdDeviation="40" result="effect1_foregroundBlur_17097_11254"/>
</filter>
<filter id="filter9_f_17097_11254" x="44.8809" y="220.394" width="386.931" height="401.688" filterUnits="userSpaceOnUse" color-interpolation-filters="sRGB">
<feFlood flood-opacity="0" result="BackgroundImageFix"/>
<feBlend mode="normal" in="SourceGraphic" in2="BackgroundImageFix" result="shape"/>
<feGaussianBlur stdDeviation="40" result="effect1_foregroundBlur_17097_11254"/>
</filter>
<filter id="filter10_f_17097_11254" x="411.57" y="484.024" width="561.771" height="535.076" filterUnits="userSpaceOnUse" color-interpolation-filters="sRGB">
<feFlood flood-opacity="0" result="BackgroundImageFix"/>
<feBlend mode="normal" in="SourceGraphic" in2="BackgroundImageFix" result="shape"/>
<feGaussianBlur stdDeviation="78.7687" result="effect1_foregroundBlur_17097_11254"/>
</filter>
<radialGradient id="paint0_radial_17097_11254" cx="0" cy="0" r="1" gradientTransform="matrix(-567.87 353.35 -509.073 -398.75 796.676 384.04)" gradientUnits="userSpaceOnUse">
<stop stop-color="#EA1758"/>
<stop offset="1" stop-color="#F7306E" stop-opacity="0"/>
</radialGradient>
<radialGradient id="paint1_radial_17097_11254" cx="0" cy="0" r="1" gradientTransform="matrix(-270.987 341.781 -400.218 -132.921 748.808 168.569)" gradientUnits="userSpaceOnUse">
<stop stop-color="#FE165E"/>
<stop offset="1" stop-color="#F7306E" stop-opacity="0"/>
</radialGradient>
<radialGradient id="paint2_radial_17097_11254" cx="0" cy="0" r="1" gradientTransform="matrix(-213.166 -163.283 239.155 -153.371 781.316 781.05)" gradientUnits="userSpaceOnUse">
<stop stop-color="#EB78F9"/>
<stop offset="1" stop-color="#EB78F9" stop-opacity="0"/>
</radialGradient>
<radialGradient id="paint3_radial_17097_11254" cx="0" cy="0" r="1" gradientTransform="matrix(-271.757 -373.235 469.144 -136.149 781.316 781.05)" gradientUnits="userSpaceOnUse">
<stop stop-color="#B108C5"/>
<stop offset="1" stop-color="#EB78F9" stop-opacity="0"/>
</radialGradient>
<radialGradient id="paint4_radial_17097_11254" cx="0" cy="0" r="1" gradientTransform="matrix(432.093 -345.823 503.505 291.657 238.593 814.671)" gradientUnits="userSpaceOnUse">
<stop stop-color="#00AEFF"/>
<stop offset="1" stop-color="#3963F9" stop-opacity="0"/>
</radialGradient>
<radialGradient id="paint5_radial_17097_11254" cx="0" cy="0" r="1" gradientTransform="matrix(326.018 211.88 -300.976 226.261 220.161 379.033)" gradientUnits="userSpaceOnUse">
<stop stop-color="#B3FF28"/>
<stop offset="1" stop-color="#BAF155" stop-opacity="0"/>
</radialGradient>
<radialGradient id="paint6_radial_17097_11254" cx="0" cy="0" r="1" gradientTransform="matrix(224.602 310.044 -356.618 101.415 143.36 234.483)" gradientUnits="userSpaceOnUse">
<stop stop-color="#EAFF00"/>
<stop offset="1" stop-color="#F0FF50" stop-opacity="0"/>
</radialGradient>
<radialGradient id="paint7_radial_17097_11254" cx="0" cy="0" r="1" gradientTransform="matrix(737.285 -150.935 238.688 526.624 125.952 659.443)" gradientUnits="userSpaceOnUse">
<stop stop-color="#FFF8E4"/>
<stop offset="1" stop-color="#FFF8E4" stop-opacity="0"/>
</radialGradient>
<radialGradient id="paint8_radial_17097_11254" cx="0" cy="0" r="1" gradientTransform="matrix(-567.87 353.35 -509.073 -398.75 796.676 384.04)" gradientUnits="userSpaceOnUse">
<stop stop-color="#EA1758"/>
<stop offset="1" stop-color="#F7306E" stop-opacity="0"/>
</radialGradient>
<radialGradient id="paint9_radial_17097_11254" cx="0" cy="0" r="1" gradientTransform="matrix(-270.987 341.781 -400.218 -132.921 748.808 168.569)" gradientUnits="userSpaceOnUse">
<stop stop-color="#FE165E"/>
<stop offset="1" stop-color="#F7306E" stop-opacity="0"/>
</radialGradient>
<radialGradient id="paint10_radial_17097_11254" cx="0" cy="0" r="1" gradientTransform="matrix(-213.166 -163.283 239.155 -153.371 781.316 781.05)" gradientUnits="userSpaceOnUse">
<stop stop-color="#EB78F9"/>
<stop offset="1" stop-color="#EB78F9" stop-opacity="0"/>
</radialGradient>
<radialGradient id="paint11_radial_17097_11254" cx="0" cy="0" r="1" gradientTransform="matrix(-271.757 -373.235 469.144 -136.149 781.316 781.05)" gradientUnits="userSpaceOnUse">
<stop stop-color="#B108C5"/>
<stop offset="1" stop-color="#EB78F9" stop-opacity="0"/>
</radialGradient>
<radialGradient id="paint12_radial_17097_11254" cx="0" cy="0" r="1" gradientTransform="matrix(432.093 -345.823 503.505 291.657 238.593 814.671)" gradientUnits="userSpaceOnUse">
<stop stop-color="#00AEFF"/>
<stop offset="1" stop-color="#3963F9" stop-opacity="0"/>
</radialGradient>
<radialGradient id="paint13_radial_17097_11254" cx="0" cy="0" r="1" gradientTransform="matrix(326.018 211.88 -300.976 226.261 220.161 379.033)" gradientUnits="userSpaceOnUse">
<stop stop-color="#B3FF28"/>
<stop offset="1" stop-color="#BAF155" stop-opacity="0"/>
</radialGradient>
<radialGradient id="paint14_radial_17097_11254" cx="0" cy="0" r="1" gradientTransform="matrix(224.602 310.044 -356.618 101.415 143.36 234.483)" gradientUnits="userSpaceOnUse">
<stop stop-color="#5EFF00"/>
<stop offset="1" stop-color="#F0FF50" stop-opacity="0"/>
</radialGradient>
<radialGradient id="paint15_radial_17097_11254" cx="0" cy="0" r="1" gradientTransform="matrix(737.285 -150.935 238.688 526.624 125.952 659.443)" gradientUnits="userSpaceOnUse">
<stop stop-color="#FFF8E4"/>
<stop offset="1" stop-color="#FFF8E4" stop-opacity="0"/>
</radialGradient>
<radialGradient id="paint16_radial_17097_11254" cx="0" cy="0" r="1" gradientTransform="matrix(-448.512 378.733 -406.528 -417.847 796.672 226.754)" gradientUnits="userSpaceOnUse">
<stop stop-color="#F7306E"/>
<stop offset="1" stop-color="#F7306E" stop-opacity="0"/>
</radialGradient>
<radialGradient id="paint17_radial_17097_11254" cx="0" cy="0" r="1" gradientTransform="matrix(-448.512 378.733 -406.528 -417.847 796.672 226.754)" gradientUnits="userSpaceOnUse">
<stop stop-color="#F7306E"/>
<stop offset="1" stop-color="#F7306E" stop-opacity="0"/>
</radialGradient>
<radialGradient id="paint18_radial_17097_11254" cx="0" cy="0" r="1" gradientTransform="matrix(-324.608 -356.791 382.976 -302.414 781.312 756.217)" gradientUnits="userSpaceOnUse">
<stop stop-color="#EB78F9"/>
<stop offset="1" stop-color="#EB78F9" stop-opacity="0"/>
</radialGradient>
<radialGradient id="paint19_radial_17097_11254" cx="0" cy="0" r="1" gradientTransform="matrix(-324.608 -356.791 382.976 -302.414 781.312 756.217)" gradientUnits="userSpaceOnUse">
<stop stop-color="#EB78F9"/>
<stop offset="1" stop-color="#EB78F9" stop-opacity="0"/>
</radialGradient>
<radialGradient id="paint20_radial_17097_11254" cx="0" cy="0" r="1" gradientTransform="matrix(565.247 -548.543 618.412 529.699 238.592 801.054)" gradientUnits="userSpaceOnUse">
<stop stop-color="#00AEFF"/>
<stop offset="1" stop-color="#3963F9" stop-opacity="0"/>
</radialGradient>
<radialGradient id="paint21_radial_17097_11254" cx="0" cy="0" r="1" gradientTransform="matrix(344.064 291.92 -313.344 320.54 220.16 220.076)" gradientUnits="userSpaceOnUse">
<stop stop-color="#F1A455"/>
<stop offset="1" stop-color="#F1A455" stop-opacity="0"/>
</radialGradient>
<radialGradient id="paint22_radial_17097_11254" cx="0" cy="0" r="1" gradientTransform="matrix(344.064 291.92 -313.344 320.54 220.16 220.076)" gradientUnits="userSpaceOnUse">
<stop stop-color="#F1A455"/>
<stop offset="1" stop-color="#F1A455" stop-opacity="0"/>
</radialGradient>
<radialGradient id="paint23_radial_17097_11254" cx="0" cy="0" r="1" gradientTransform="matrix(737.279 -201.291 238.686 702.32 125.952 594.039)" gradientUnits="userSpaceOnUse">
<stop stop-color="#FFF8E4"/>
<stop offset="1" stop-color="#FFF8E4" stop-opacity="0"/>
</radialGradient>
<radialGradient id="paint24_radial_17097_11254" cx="0" cy="0" r="1" gradientTransform="matrix(-448.512 378.733 -406.528 -417.847 796.672 226.754)" gradientUnits="userSpaceOnUse">
<stop stop-color="#F7306E"/>
<stop offset="1" stop-color="#F7306E" stop-opacity="0"/>
</radialGradient>
<radialGradient id="paint25_radial_17097_11254" cx="0" cy="0" r="1" gradientTransform="matrix(-448.512 378.733 -406.528 -417.847 796.672 226.754)" gradientUnits="userSpaceOnUse">
<stop stop-color="#F7306E"/>
<stop offset="1" stop-color="#F7306E" stop-opacity="0"/>
</radialGradient>
<radialGradient id="paint26_radial_17097_11254" cx="0" cy="0" r="1" gradientTransform="matrix(-324.608 -356.791 382.976 -302.414 781.312 756.217)" gradientUnits="userSpaceOnUse">
<stop stop-color="#EB78F9"/>
<stop offset="1" stop-color="#EB78F9" stop-opacity="0"/>
</radialGradient>
<radialGradient id="paint27_radial_17097_11254" cx="0" cy="0" r="1" gradientTransform="matrix(-324.608 -356.791 382.976 -302.414 781.312 756.217)" gradientUnits="userSpaceOnUse">
<stop stop-color="#EB78F9"/>
<stop offset="1" stop-color="#EB78F9" stop-opacity="0"/>
</radialGradient>
<radialGradient id="paint28_radial_17097_11254" cx="0" cy="0" r="1" gradientTransform="matrix(565.247 -548.543 618.412 529.699 238.592 801.054)" gradientUnits="userSpaceOnUse">
<stop stop-color="#00AEFF"/>
<stop offset="1" stop-color="#3963F9" stop-opacity="0"/>
</radialGradient>
<radialGradient id="paint29_radial_17097_11254" cx="0" cy="0" r="1" gradientTransform="matrix(344.064 291.92 -313.344 320.54 220.16 220.076)" gradientUnits="userSpaceOnUse">
<stop stop-color="#F1A455"/>
<stop offset="1" stop-color="#F1A455" stop-opacity="0"/>
</radialGradient>
<radialGradient id="paint30_radial_17097_11254" cx="0" cy="0" r="1" gradientTransform="matrix(344.064 291.92 -313.344 320.54 220.16 220.076)" gradientUnits="userSpaceOnUse">
<stop stop-color="#F1A455"/>
<stop offset="1" stop-color="#F1A455" stop-opacity="0"/>
</radialGradient>
<radialGradient id="paint31_radial_17097_11254" cx="0" cy="0" r="1" gradientTransform="matrix(737.279 -201.291 238.686 702.32 125.952 594.039)" gradientUnits="userSpaceOnUse">
<stop stop-color="#FFF8E4"/>
<stop offset="1" stop-color="#FFF8E4" stop-opacity="0"/>
</radialGradient>
<radialGradient id="paint32_radial_17097_11254" cx="0" cy="0" r="1" gradientTransform="matrix(-448.515 283.987 -406.53 -313.316 796.676 384.032)" gradientUnits="userSpaceOnUse">
<stop stop-color="#F7306E"/>
<stop offset="1" stop-color="#F7306E" stop-opacity="0"/>
</radialGradient>
<radialGradient id="paint33_radial_17097_11254" cx="0" cy="0" r="1" gradientTransform="matrix(-448.515 283.987 -406.53 -313.316 796.676 384.032)" gradientUnits="userSpaceOnUse">
<stop stop-color="#F7306E"/>
<stop offset="1" stop-color="#F7306E" stop-opacity="0"/>
</radialGradient>
<radialGradient id="paint34_radial_17097_11254" cx="0" cy="0" r="1" gradientTransform="matrix(-324.61 -267.535 382.978 -226.761 781.316 781.042)" gradientUnits="userSpaceOnUse">
<stop stop-color="#EB78F9"/>
<stop offset="1" stop-color="#EB78F9" stop-opacity="0"/>
</radialGradient>
<radialGradient id="paint35_radial_17097_11254" cx="0" cy="0" r="1" gradientTransform="matrix(-324.61 -267.535 382.978 -226.761 781.316 781.042)" gradientUnits="userSpaceOnUse">
<stop stop-color="#78F98E"/>
<stop offset="1" stop-color="#EB78F9" stop-opacity="0"/>
</radialGradient>
<radialGradient id="paint36_radial_17097_11254" cx="0" cy="0" r="1" gradientTransform="matrix(565.251 -411.317 618.416 397.187 238.593 814.663)" gradientUnits="userSpaceOnUse">
<stop stop-color="#00AEFF"/>
<stop offset="1" stop-color="#3963F9" stop-opacity="0"/>
</radialGradient>
<radialGradient id="paint37_radial_17097_11254" cx="0" cy="0" r="1" gradientTransform="matrix(344.066 218.892 -313.346 240.352 220.161 379.024)" gradientUnits="userSpaceOnUse">
<stop stop-color="#55F181"/>
<stop offset="1" stop-color="#55F181" stop-opacity="0"/>
</radialGradient>
<radialGradient id="paint38_radial_17097_11254" cx="0" cy="0" r="1" gradientTransform="matrix(344.066 218.892 -313.346 240.352 220.161 379.024)" gradientUnits="userSpaceOnUse">
<stop stop-color="#F1A455"/>
<stop offset="1" stop-color="#F1A455" stop-opacity="0"/>
</radialGradient>
<radialGradient id="paint39_radial_17097_11254" cx="0" cy="0" r="1" gradientTransform="matrix(737.284 -150.935 238.687 526.624 125.952 659.435)" gradientUnits="userSpaceOnUse">
<stop stop-color="#FFF8E4"/>
<stop offset="1" stop-color="#FFF8E4" stop-opacity="0"/>
</radialGradient>
<linearGradient id="paint40_linear_17097_11254" x1="336.233" y1="378.524" x2="397.265" y2="280.872" gradientUnits="userSpaceOnUse">
<stop stop-color="#BDBDBD" stop-opacity="0"/>
<stop offset="1" stop-color="#3C3C3C"/>
</linearGradient>
<linearGradient id="paint41_linear_17097_11254" x1="590.127" y1="384.264" x2="761.018" y2="477.033" gradientUnits="userSpaceOnUse">
<stop stop-color="#BDBDBD" stop-opacity="0"/>
<stop offset="1" stop-color="#141414"/>
</linearGradient>
<linearGradient id="paint42_linear_17097_11254" x1="326.466" y1="632.414" x2="245.903" y2="437.112" gradientUnits="userSpaceOnUse">
<stop stop-color="#BDBDBD" stop-opacity="0"/>
<stop offset="1" stop-color="#141414"/>
</linearGradient>
<linearGradient id="paint43_linear_17097_11254" x1="531.524" y1="744.715" x2="326.454" y2="783.776" gradientUnits="userSpaceOnUse">
<stop stop-color="#BDBDBD" stop-opacity="0"/>
<stop offset="1" stop-color="#141414"/>
</linearGradient>
<linearGradient id="paint44_linear_17097_11254" x1="702.448" y1="556.733" x2="641.416" y2="632.413" gradientUnits="userSpaceOnUse">
<stop stop-color="#BDBDBD" stop-opacity="0"/>
<stop offset="1" stop-color="#141414" stop-opacity="0.3"/>
</linearGradient>
<radialGradient id="paint45_radial_17097_11254" cx="0" cy="0" r="1" gradientTransform="matrix(-448.515 283.987 -406.53 -313.316 796.676 384.032)" gradientUnits="userSpaceOnUse">
<stop stop-color="#F7306E"/>
<stop offset="1" stop-color="#F7306E" stop-opacity="0"/>
</radialGradient>
<radialGradient id="paint46_radial_17097_11254" cx="0" cy="0" r="1" gradientTransform="matrix(-448.515 283.987 -406.53 -313.316 796.676 384.032)" gradientUnits="userSpaceOnUse">
<stop stop-color="#F7306E"/>
<stop offset="1" stop-color="#F7306E" stop-opacity="0"/>
</radialGradient>
<radialGradient id="paint47_radial_17097_11254" cx="0" cy="0" r="1" gradientTransform="matrix(-324.61 -267.535 382.978 -226.761 781.316 781.042)" gradientUnits="userSpaceOnUse">
<stop stop-color="#EB78F9"/>
<stop offset="1" stop-color="#EB78F9" stop-opacity="0"/>
</radialGradient>
<radialGradient id="paint48_radial_17097_11254" cx="0" cy="0" r="1" gradientTransform="matrix(-324.61 -267.535 382.978 -226.761 781.316 781.042)" gradientUnits="userSpaceOnUse">
<stop stop-color="#78F98E"/>
<stop offset="1" stop-color="#EB78F9" stop-opacity="0"/>
</radialGradient>
<radialGradient id="paint49_radial_17097_11254" cx="0" cy="0" r="1" gradientTransform="matrix(565.251 -411.317 618.416 397.187 238.593 814.663)" gradientUnits="userSpaceOnUse">
<stop stop-color="#00AEFF"/>
<stop offset="1" stop-color="#3963F9" stop-opacity="0"/>
</radialGradient>
<radialGradient id="paint50_radial_17097_11254" cx="0" cy="0" r="1" gradientTransform="matrix(344.066 218.892 -313.346 240.352 220.161 379.024)" gradientUnits="userSpaceOnUse">
<stop stop-color="#55F181"/>
<stop offset="1" stop-color="#55F181" stop-opacity="0"/>
</radialGradient>
<radialGradient id="paint51_radial_17097_11254" cx="0" cy="0" r="1" gradientTransform="matrix(344.066 218.892 -313.346 240.352 220.161 379.024)" gradientUnits="userSpaceOnUse">
<stop stop-color="#F1A455"/>
<stop offset="1" stop-color="#F1A455" stop-opacity="0"/>
</radialGradient>
<radialGradient id="paint52_radial_17097_11254" cx="0" cy="0" r="1" gradientTransform="matrix(737.284 -150.935 238.687 526.624 125.952 659.435)" gradientUnits="userSpaceOnUse">
<stop stop-color="#FFF8E4"/>
<stop offset="1" stop-color="#FFF8E4" stop-opacity="0"/>
</radialGradient>
<linearGradient id="paint53_linear_17097_11254" x1="336.233" y1="378.524" x2="372.852" y2="334.58" gradientUnits="userSpaceOnUse">
<stop stop-color="#BDBDBD" stop-opacity="0"/>
<stop offset="1" stop-color="#3C3C3C"/>
</linearGradient>
<linearGradient id="paint54_linear_17097_11254" x1="597.451" y1="351.65" x2="692.662" y2="394.029" gradientUnits="userSpaceOnUse">
<stop stop-color="#BDBDBD" stop-opacity="0"/>
<stop offset="1" stop-color="#141414" stop-opacity="0.8"/>
</linearGradient>
<linearGradient id="paint55_linear_17097_11254" x1="289.846" y1="642.179" x2="265.433" y2="600.678" gradientUnits="userSpaceOnUse">
<stop stop-color="#BDBDBD" stop-opacity="0"/>
<stop offset="1" stop-color="#141414"/>
</linearGradient>
<linearGradient id="paint56_linear_17097_11254" x1="551.054" y1="761.804" x2="490.022" y2="781.335" gradientUnits="userSpaceOnUse">
<stop stop-color="#BDBDBD" stop-opacity="0"/>
<stop offset="1" stop-color="#141414"/>
</linearGradient>
<linearGradient id="paint57_linear_17097_11254" x1="746.391" y1="566.498" x2="739.067" y2="629.972" gradientUnits="userSpaceOnUse">
<stop stop-color="#BDBDBD" stop-opacity="0"/>
<stop offset="1" stop-color="#141414"/>
</linearGradient>
</defs>
</svg>
